<svg xmlns="http://www.w3.org/2000/svg" viewBox="0 0 24 24" fill="currentColor">
    <path d="M3 5.5C3 4.1 4.1 3 5.5 3H8v2.5C8 6.9 6.9 8 5.5 8H3V5.5z"/>
    <path d="M16 5.5C16 4.1 17.1 3 18.5 3H21v2.5C21 6.9 19.9 8 18.5 8H16V5.5z"/>
    <path d="M9.5 12C9.5 10.6 10.6 9.5 12 9.5H14.5V12C14.5 13.4 13.4 14.5 12 14.5H9.5V12z"/>
    <path d="M3 18.5C3 17.1 4.1 16 5.5 16H8v2.5C8 19.9 6.9 21 5.5 21H3V18.5z"/>
    <path d="M16 18.5C16 17.1 17.1 16 18.5 16H21v2.5C21 19.9 19.9 21 18.5 21H16V18.5z"/>
</svg>
