<svg xmlns="http://www.w3.org/2000/svg" viewBox="0 0 24 24" fill="currentColor">
    <path d="M3 5.5A2.5 2.5 0 0 1 5.5 3h1A1.5 1.5 0 0 1 8 4.5v1A2.5 2.5 0 0 1 5.5 8h-1A1.5 1.5 0 0 1 3 6.5v-1z"/>
    <path d="M16 5.5A2.5 2.5 0 0 1 18.5 3h1A1.5 1.5 0 0 1 21 4.5v1A2.5 2.5 0 0 1 18.5 8h-1A1.5 1.5 0 0 1 16 6.5v-1z"/>
    <path d="M9.5 12A2.5 2.5 0 0 1 12 9.5h1A1.5 1.5 0 0 1 14.5 11v1A2.5 2.5 0 0 1 12 14.5h-1A1.5 1.5 0 0 1 9.5 13v-1z"/>
    <path d="M3 18.5A2.5 2.5 0 0 1 5.5 16h1A1.5 1.5 0 0 1 8 17.5v1A2.5 2.5 0 0 1 5.5 21h-1A1.5 1.5 0 0 1 3 19.5v-1z"/>
    <path d="M16 18.5A2.5 2.5 0 0 1 18.5 16h1A1.5 1.5 0 0 1 21 17.5v1A2.5 2.5 0 0 1 18.5 21h-1A1.5 1.5 0 0 1 16 19.5v-1z"/>
</svg>
